<svg width="20" height="20" viewBox="0 0 20 20" fill="none" xmlns="http://www.w3.org/2000/svg">
<path d="M6.96429 5.625V7.5H13.0357V5.625C13.0357 3.89844 11.6772 2.5 10 2.5C8.32277 2.5 6.96429 3.89844 6.96429 5.625ZM4.53571 7.5V5.625C4.53571 2.51953 6.98326 0 10 0C13.0167 0 15.4643 2.51953 15.4643 5.625V7.5H16.0714C17.4109 7.5 18.5 8.62109 18.5 10V17.5C18.5 18.8789 17.4109 20 16.0714 20H3.92857C2.58906 20 1.5 18.8789 1.5 17.5V10C1.5 8.62109 2.58906 7.5 3.92857 7.5H4.53571Z" fill="#999999"/>
</svg>
