<svg width="18" height="20" viewBox="0 0 18 20" fill="none" xmlns="http://www.w3.org/2000/svg">
<path d="M4.14286 1.25V2.5H2.32143C1.31585 2.5 0.5 3.33984 0.5 4.375V6.25H17.5V4.375C17.5 3.33984 16.6842 2.5 15.6786 2.5H13.8571V1.25C13.8571 0.558594 13.3145 0 12.6429 0C11.9712 0 11.4286 0.558594 11.4286 1.25V2.5H6.57143V1.25C6.57143 0.558594 6.02879 0 5.35714 0C4.68549 0 4.14286 0.558594 4.14286 1.25ZM17.5 7.5H0.5V18.125C0.5 19.1602 1.31585 20 2.32143 20H15.6786C16.6842 20 17.5 19.1602 17.5 18.125V7.5Z" fill="#999999"/>
</svg>
