<svg width="64" height="62" viewBox="0 0 64 62" fill="none" xmlns="http://www.w3.org/2000/svg">
<g filter="url(#filter0_d_530_1093)">
<path d="M10 33.1548C10 42.7868 15.9506 48.6348 22.0736 48.6348C25.6838 48.6348 28.4547 47.0868 31.9824 47.0868C35.5101 47.0868 38.0739 48.6348 41.0464 48.6348C44.151 48.6348 53.12 47.3448 53.12 33.1548C53.12 18.9648 44.7655 10.7948 39.4941 10.7948C35.0635 10.7948 34.4922 14.2348 31.9912 14.2348C29.4902 14.2348 29.1453 10.7948 24.5746 10.7948C17.0717 10.7948 10 23.5228 10 33.1548Z" fill="url(#paint0_radial_530_1093)"/>
<path d="M25.607 46.083C22.6458 46.083 19.8361 48.0824 19.2288 50.725C19.0966 51.3006 19.5869 51.7854 20.1774 51.7854H30.1566C30.7471 51.7854 31.2359 51.3029 31.1366 50.7208C30.6863 48.0803 28.5666 46.083 25.607 46.083Z" fill="url(#paint1_radial_530_1093)"/>
<path d="M38.1908 46.083C35.2312 46.083 33.1114 48.0803 32.6612 50.7208C32.5619 51.3029 33.0507 51.7854 33.6412 51.7854H43.6204C44.2109 51.7854 44.7012 51.3005 44.5689 50.725C43.9616 48.0824 41.152 46.083 38.1908 46.083Z" fill="url(#paint2_radial_530_1093)"/>
<ellipse cx="28.4799" cy="25.3147" rx="1.32" ry="2.2" fill="#162430"/>
<ellipse cx="35.52" cy="25.3147" rx="1.32" ry="2.2" fill="#162430"/>
</g>
<defs>
<filter id="filter0_d_530_1093" x="9.53674e-07" y="0.794923" width="63.1201" height="60.9907" filterUnits="userSpaceOnUse" color-interpolation-filters="sRGB">
<feFlood flood-opacity="0" result="BackgroundImageFix"/>
<feColorMatrix in="SourceAlpha" type="matrix" values="0 0 0 0 0 0 0 0 0 0 0 0 0 0 0 0 0 0 127 0" result="hardAlpha"/>
<feOffset/>
<feGaussianBlur stdDeviation="5"/>
<feComposite in2="hardAlpha" operator="out"/>
<feColorMatrix type="matrix" values="0 0 0 0 1 0 0 0 0 1 0 0 0 0 1 0 0 0 0.25 0"/>
<feBlend mode="normal" in2="BackgroundImageFix" result="effect1_dropShadow_530_1093"/>
<feBlend mode="normal" in="SourceGraphic" in2="effect1_dropShadow_530_1093" result="shape"/>
</filter>
<radialGradient id="paint0_radial_530_1093" cx="0" cy="0" r="1" gradientUnits="userSpaceOnUse" gradientTransform="translate(31.56 26.8548) rotate(90) scale(22.88 26.0726)">
<stop offset="0.5" stop-color="#C2F7EA"/>
<stop offset="0.677885" stop-color="#BCF0E3"/>
<stop offset="1" stop-color="#93DBC8"/>
</radialGradient>
<radialGradient id="paint1_radial_530_1093" cx="0" cy="0" r="1" gradientUnits="userSpaceOnUse" gradientTransform="translate(25.167 47.865) rotate(90) scale(4.554 9.67725)">
<stop stop-color="#63DEBF"/>
<stop offset="0.572115" stop-color="#57D1B2"/>
<stop offset="1" stop-color="#4DC7A8"/>
</radialGradient>
<radialGradient id="paint2_radial_530_1093" cx="0" cy="0" r="1" gradientUnits="userSpaceOnUse" gradientTransform="translate(38.6308 47.865) rotate(90) scale(4.554 9.67725)">
<stop stop-color="#63DEBF"/>
<stop offset="0.572115" stop-color="#57D1B2"/>
<stop offset="1" stop-color="#4DC7A8"/>
</radialGradient>
</defs>
</svg>
