<svg width="6" height="10" viewBox="0 0 6 10" fill="none" xmlns="http://www.w3.org/2000/svg">
<path d="M5.53143 4.99991C5.52601 4.80893 5.45558 4.64523 5.3093 4.49791L1.09437 0.345436C0.969761 0.225391 0.823484 0.159912 0.644701 0.159912C0.281718 0.159912 0 0.443655 0 0.809247C0 0.983858 0.0704296 1.14756 0.195036 1.27306L3.9874 4.99991L0.195036 8.72677C0.0704296 8.85227 0 9.01051 0 9.19058C0 9.55617 0.281718 9.83991 0.644701 9.83991C0.818066 9.83991 0.969761 9.77443 1.09437 9.65439L5.3093 5.49646C5.461 5.35459 5.53143 5.19089 5.53143 4.99991Z" fill="#333333"/>
</svg>
