<svg width="15" height="14" viewBox="0 0 15 14" fill="none" xmlns="http://www.w3.org/2000/svg">
<path d="M0.290039 6.23313C-0.0966797 6.61985 -0.0966797 7.24788 0.290039 7.6346L6.23004 13.5746C6.61676 13.9613 7.24479 13.9613 7.63151 13.5746C8.01823 13.1879 8.01823 12.5599 7.63151 12.1731L2.3907 6.93232L7.62841 1.69151C8.01513 1.30479 8.01513 0.676758 7.62841 0.290039C7.2417 -0.0966797 6.61366 -0.0966797 6.22695 0.290039L0.286945 6.23004L0.290039 6.23313Z" fill="#999999"/>
<path d="M7.29004 6.23313C6.90332 6.61985 6.90332 7.24788 7.29004 7.6346L13.23 13.5746C13.6168 13.9613 14.2448 13.9613 14.6315 13.5746C15.0182 13.1879 15.0182 12.5599 14.6315 12.1731L9.3907 6.93232L14.6284 1.69151C15.0151 1.30479 15.0151 0.676758 14.6284 0.290039C14.2417 -0.0966797 13.6137 -0.0966797 13.2269 0.290039L7.28695 6.23004L7.29004 6.23313Z" fill="#999999"/>
</svg>
