<svg width="20" height="20" viewBox="0 0 20 20" fill="none" xmlns="http://www.w3.org/2000/svg">
<g clip-path="url(#clip0_376_2465)">
<path d="M18.2907 13.6939C18.2159 13.6054 18.1425 13.5168 18.0705 13.4314C17.0796 12.2533 16.4802 11.5423 16.4802 8.20723C16.4802 6.4806 16.06 5.06388 15.2317 4.00134C14.621 3.21639 13.7955 2.62093 12.7074 2.18086C12.6934 2.1732 12.6808 2.16316 12.6704 2.1512C12.279 0.86287 11.208 0 10.0001 0C8.79221 0 7.72167 0.86287 7.33029 2.14987C7.31984 2.16139 7.30751 2.17112 7.29381 2.17865C4.75457 3.20621 3.52054 5.17766 3.52054 8.2059C3.52054 11.5423 2.92198 12.2533 1.93025 13.43C1.85819 13.5155 1.78478 13.6023 1.71001 13.6926C1.51689 13.9215 1.39453 14.2001 1.35742 14.4952C1.32031 14.7904 1.36999 15.0898 1.50059 15.3581C1.77847 15.9337 2.37072 16.2909 3.04674 16.2909H16.9585C17.6313 16.2909 18.2195 15.9341 18.4983 15.3612C18.6295 15.0929 18.6796 14.7932 18.6428 14.4977C18.606 14.2022 18.4838 13.9232 18.2907 13.6939Z" fill="#999999"/>
<path d="M10.0801 20.0001C10.7369 19.9996 11.3814 19.8213 11.9451 19.4842C12.5088 19.147 12.9707 18.6636 13.2819 18.0852C13.2966 18.0575 13.3038 18.0264 13.3029 17.9951C13.302 17.9637 13.2931 17.9331 13.2769 17.9063C13.2607 17.8794 13.2378 17.8572 13.2105 17.8418C13.1832 17.8264 13.1523 17.8183 13.121 17.8184H7.04017C7.00877 17.8183 6.97788 17.8263 6.9505 17.8416C6.92313 17.857 6.9002 17.8792 6.88395 17.9061C6.8677 17.933 6.85869 17.9636 6.85779 17.995C6.85689 18.0263 6.86413 18.0574 6.8788 18.0852C7.18995 18.6635 7.65182 19.1469 8.21543 19.4841C8.77903 19.8212 9.42338 19.9995 10.0801 20.0001Z" fill="#999999"/>
</g>
<defs>
<clipPath id="clip0_376_2465">
<rect width="20" height="20" fill="white"/>
</clipPath>
</defs>
</svg>
