<svg width="18" height="18" viewBox="0 0 18 18" fill="none" xmlns="http://www.w3.org/2000/svg">
<path d="M16.293 0.292969C16.6835 -0.0975248 17.3166 -0.0975469 17.7071 0.292969C18.0976 0.683483 18.0976 1.31651 17.7071 1.70703L10.3829 9.03027L17.6456 16.293C18.0358 16.6834 18.0357 17.3165 17.6456 17.707C17.2551 18.0975 16.622 18.0975 16.2315 17.707L8.9688 10.4443L1.7686 17.6455C1.37805 18.0357 0.744956 18.0359 0.354538 17.6455C-0.0357924 17.2551 -0.0356354 16.622 0.354538 16.2314L7.55473 9.03027L0.293015 1.76953C-0.0975074 1.379 -0.0975074 0.745019 0.293015 0.354492C0.683475 -0.0356644 1.31663 -0.0356857 1.70708 0.354492L8.9688 7.61621L16.293 0.292969Z" fill="#999999"/>
</svg>
