<svg width="64" height="64" viewBox="0 0 64 64" fill="none" xmlns="http://www.w3.org/2000/svg">
<g clip-path="url(#clip0_632_1242)">
<rect width="64" height="64" rx="16.64" fill="url(#paint0_linear_632_1242)"/>
<path d="M0.499968 56.6173C0.499969 70.6677 9.18016 79.1982 18.112 79.1982C23.3782 79.1982 27.4202 76.9401 32.5661 76.9401C37.712 76.9401 41.4519 79.1982 45.7879 79.1982C50.3167 79.1982 63.3999 77.3165 63.3999 56.6173C63.3999 35.9181 51.213 24.0003 43.5235 24.0003C37.0606 24.0003 36.2271 29.0183 32.5789 29.0183C28.9307 29.0183 28.4275 24.0003 21.7601 24.0003C10.8156 24.0003 0.499966 42.5669 0.499968 56.6173Z" fill="url(#paint1_radial_632_1242)"/>
<g opacity="0.7" filter="url(#filter0_f_632_1242)">
<ellipse cx="32.125" cy="48.6125" rx="18.975" ry="17.7375" fill="url(#paint2_radial_632_1242)"/>
</g>
<ellipse cx="27.4571" cy="45.1809" rx="1.92551" ry="3.20918" fill="#162430"/>
<ellipse cx="37.7265" cy="45.1809" rx="1.92551" ry="3.20918" fill="#162430"/>
</g>
<defs>
<filter id="filter0_f_632_1242" x="7.64998" y="25.375" width="48.95" height="46.4751" filterUnits="userSpaceOnUse" color-interpolation-filters="sRGB">
<feFlood flood-opacity="0" result="BackgroundImageFix"/>
<feBlend mode="normal" in="SourceGraphic" in2="BackgroundImageFix" result="shape"/>
<feGaussianBlur stdDeviation="2.75" result="effect1_foregroundBlur_632_1242"/>
</filter>
<linearGradient id="paint0_linear_632_1242" x1="32" y1="-33.5" x2="32" y2="36.625" gradientUnits="userSpaceOnUse">
<stop stop-color="#DFDFF6"/>
<stop offset="0.403846" stop-color="#A4A4E8"/>
<stop offset="0.985577" stop-color="#7878FD"/>
</linearGradient>
<radialGradient id="paint1_radial_632_1242" cx="0" cy="0" r="1" gradientUnits="userSpaceOnUse" gradientTransform="translate(31.9499 44.4878) rotate(90) scale(34.7875 39.6416)">
<stop offset="0.3" stop-color="#C2F7EA"/>
<stop offset="0.47658" stop-color="#BCF0E3"/>
<stop offset="1" stop-color="#7FE5CA"/>
</radialGradient>
<radialGradient id="paint2_radial_632_1242" cx="0" cy="0" r="1" gradientUnits="userSpaceOnUse" gradientTransform="translate(31.9732 42.6527) rotate(89.7053) scale(29.5156 31.5747)">
<stop stop-color="#DAFFF6"/>
<stop offset="1" stop-color="#B7EEE1"/>
</radialGradient>
<clipPath id="clip0_632_1242">
<rect width="64" height="64" rx="16.64" fill="white"/>
</clipPath>
</defs>
</svg>
