<svg width="20" height="20" viewBox="0 0 20 20" fill="none" xmlns="http://www.w3.org/2000/svg">
<rect width="20" height="20" rx="7" fill="#DCFCE7"/>
<g clip-path="url(#clip0_377_416)">
<path d="M9.49466 14.8357L5.93712 11.5145C5.85444 11.4377 5.77569 11.355 5.70284 11.2703H7.41566C7.86059 11.2703 8.26222 11.0026 8.4335 10.5911L8.64022 10.095L9.61081 12.2508C9.68563 12.4181 9.84903 12.5264 10.0321 12.5284C10.2152 12.5303 10.3826 12.4299 10.4653 12.2665L11.3 10.595L11.3335 10.662C11.5205 11.036 11.9024 11.2723 12.3198 11.2723H14.3772C14.3043 11.357 14.2256 11.4396 14.1429 11.5164L10.5853 14.8357C10.4377 14.9735 10.2428 15.0503 10.04 15.0503C9.83722 15.0503 9.64231 14.9735 9.49466 14.8357ZM14.9166 10.3253H12.3178C12.2588 10.3253 12.2037 10.2919 12.1761 10.2387L11.7193 9.32717C11.6386 9.16771 11.4752 9.06533 11.2961 9.06533C11.1169 9.06533 10.9535 9.16574 10.8728 9.32717L10.0577 10.9573L9.05366 8.71489C8.97687 8.54361 8.80362 8.43336 8.61659 8.4373C8.42956 8.44124 8.26025 8.55345 8.18741 8.72867L7.56134 10.2308C7.53772 10.2899 7.47866 10.3273 7.41566 10.3273H5.315C5.26381 10.3273 5.21656 10.3352 5.17128 10.349C5.05906 10.034 5 9.69927 5 9.35867V9.24449C5 7.86833 5.99422 6.69496 7.35069 6.46855C8.24844 6.31892 9.16194 6.61227 9.80375 7.25408L10.04 7.49033L10.2762 7.25408C10.9181 6.61227 11.8316 6.31892 12.7293 6.46855C14.0858 6.69496 15.08 7.86833 15.08 9.24449V9.35867C15.08 9.69139 15.0249 10.0182 14.9166 10.3253Z" fill="#22C55E"/>
</g>
<defs>
<clipPath id="clip0_377_416">
<rect width="10.08" height="10.08" fill="white" transform="translate(5 5.6001)"/>
</clipPath>
</defs>
</svg>
