<svg width="20" height="20" viewBox="0 0 20 20" fill="none" xmlns="http://www.w3.org/2000/svg">
<g clip-path="url(#clip0_377_267)">
<path d="M18.9995 17.6191C19.5518 17.6191 19.9995 18.0669 19.9995 18.6191C19.9995 19.1714 19.5518 19.6191 18.9995 19.6191H9.99951C9.44723 19.6191 8.99951 19.1714 8.99951 18.6191C8.99951 18.0669 9.44723 17.6191 9.99951 17.6191H18.9995Z" fill="#999999"/>
<path d="M15.897 0.380859C16.2498 0.380859 16.5994 0.450356 16.9254 0.584961C17.2515 0.719726 17.5488 0.917995 17.7984 1.16699C18.0479 1.41597 18.2464 1.71186 18.3814 2.03711C18.5164 2.36234 18.5855 2.71147 18.5855 3.06348C18.5855 3.41524 18.5162 3.76384 18.3814 4.08887C18.2463 4.41422 18.048 4.71093 17.7984 4.95996L4.97809 17.749C4.91244 17.8145 4.82987 17.8613 4.73981 17.8838L0.637268 18.9072C0.462569 18.9507 0.277291 18.8995 0.149963 18.7725C0.0228394 18.6455 -0.0282729 18.4612 0.0151978 18.2871L1.04059 14.1943C1.06313 14.1044 1.11061 14.0216 1.17633 13.9561L13.9957 1.16699C14.4998 0.664105 15.1841 0.380885 15.897 0.380859Z" fill="#999999"/>
</g>
<defs>
<clipPath id="clip0_377_267">
<rect width="20" height="19.2383" fill="white" transform="translate(0 0.380859)"/>
</clipPath>
</defs>
</svg>
