<svg width="20" height="20" viewBox="0 0 20 20" fill="none" xmlns="http://www.w3.org/2000/svg">
<g clip-path="url(#clip0_376_2447)">
<path d="M20 7.72559L19.4121 8.31348C19.068 8.654 18.6167 8.86513 18.1348 8.91113C17.6527 8.95704 17.1689 8.83496 16.7666 8.56543L12.3164 13.0576V15.332C12.3163 16.9097 11.6697 18.4187 10.5273 19.5068L6.24805 15.2275C6.23583 15.2411 6.22497 15.2565 6.21191 15.2695L1.79102 19.6904C1.38116 20.1 0.717469 20.1 0.307617 19.6904C-0.102169 19.2805 -0.102264 18.6159 0.307617 18.2061L4.72754 13.7852C4.74057 13.7721 4.75503 13.7602 4.76855 13.748L0.450195 9.42969C1.56881 8.31176 3.08553 7.68372 4.66699 7.68359H6.94141L11.4346 3.2334C11.165 2.83108 11.043 2.34731 11.0889 1.86523C11.1348 1.38326 11.346 0.932033 11.6865 0.587891L12.3164 0L20 7.72559Z" fill="#999999"/>
</g>
<defs>
<clipPath id="clip0_376_2447">
<rect width="20" height="20" fill="white"/>
</clipPath>
</defs>
</svg>
