<svg width="20" height="20" viewBox="0 0 20 20" fill="none" xmlns="http://www.w3.org/2000/svg">
<g clip-path="url(#clip0_382_1888)">
<path d="M8.2002 0C12.7288 0.000105788 16.4004 3.67153 16.4004 8.2002C16.4003 10.1053 15.7482 11.8568 14.6582 13.249C14.6745 13.2634 14.6914 13.2774 14.707 13.293L19.707 18.293C20.0975 18.6835 20.0976 19.3165 19.707 19.707C19.3165 20.0976 18.6835 20.0975 18.293 19.707L13.293 14.707C13.2774 14.6914 13.2634 14.6745 13.249 14.6582C11.8568 15.7482 10.1053 16.4003 8.2002 16.4004C3.67153 16.4004 0.000105785 12.7288 0 8.2002C0 3.67146 3.67146 0 8.2002 0ZM8.2002 2C4.77603 2 2 4.77603 2 8.2002C2.00011 11.6243 4.7761 14.4004 8.2002 14.4004C11.6242 14.4003 14.4003 11.6242 14.4004 8.2002C14.4004 4.7761 11.6243 2.00011 8.2002 2Z" fill="#999999"/>
</g>
<defs>
<clipPath id="clip0_382_1888">
<rect width="20" height="20" fill="white"/>
</clipPath>
</defs>
</svg>
