<svg width="20" height="20" viewBox="0 0 20 20" fill="none" xmlns="http://www.w3.org/2000/svg">
<rect width="20" height="20" rx="7" fill="#DBEAFE"/>
<path d="M8.59375 6.25986H11.4062C11.4922 6.25986 11.5625 6.32736 11.5625 6.40986V7.15986H8.4375V6.40986C8.4375 6.32736 8.50781 6.25986 8.59375 6.25986ZM7.5 6.40986V7.15986H6.25C5.56055 7.15986 5 7.69799 5 8.35986V10.1599H8.75H11.25H15V8.35986C15 7.69799 14.4395 7.15986 13.75 7.15986H12.5V6.40986C12.5 5.83049 12.0098 5.35986 11.4062 5.35986H8.59375C7.99023 5.35986 7.5 5.83049 7.5 6.40986ZM15 10.7599H11.25V11.3599C11.25 11.6917 10.9707 11.9599 10.625 11.9599H9.375C9.0293 11.9599 8.75 11.6917 8.75 11.3599V10.7599H5V13.1599C5 13.8217 5.56055 14.3599 6.25 14.3599H13.75C14.4395 14.3599 15 13.8217 15 13.1599V10.7599Z" fill="#3B82F6"/>
</svg>
