<svg width="20" height="20" viewBox="0 0 20 20" fill="none" xmlns="http://www.w3.org/2000/svg">
<path d="M1.41856 11.8571C2.20754 11.8571 2.84713 11.2175 2.84713 10.4286C2.84713 9.63959 2.20754 9 1.41856 9C0.629583 9 -0.0100098 9.63959 -0.0100098 10.4286C-0.0100098 11.2175 0.629583 11.8571 1.41856 11.8571Z" fill="#999999"/>
<path d="M10.0108 11.8571C10.7998 11.8571 11.4394 11.2175 11.4394 10.4286C11.4394 9.63959 10.7998 9 10.0108 9C9.22182 9 8.58223 9.63959 8.58223 10.4286C8.58223 11.2175 9.22182 11.8571 10.0108 11.8571Z" fill="#999999"/>
<path d="M18.5613 11.8571C19.3503 11.8571 19.9899 11.2175 19.9899 10.4286C19.9899 9.63959 19.3503 9 18.5613 9C17.7724 9 17.1328 9.63959 17.1328 10.4286C17.1328 11.2175 17.7724 11.8571 18.5613 11.8571Z" fill="#999999"/>
</svg>
