<svg width="18" height="20" viewBox="0 0 18 20" fill="none" xmlns="http://www.w3.org/2000/svg">
<g clip-path="url(#clip0_376_2396)">
<path d="M5.35714 0C6.02879 0 6.57143 0.558594 6.57143 1.25V2.5H11.4286V1.25C11.4286 0.558594 11.9712 0 12.6429 0C13.3145 0 13.8571 0.558594 13.8571 1.25V2.5H15.6786C16.6842 2.5 17.5 3.33984 17.5 4.375V6.25H0.5V4.375C0.5 3.33984 1.31585 2.5 2.32143 2.5H4.14286V1.25C4.14286 0.558594 4.68549 0 5.35714 0ZM0.5 7.5H17.5V18.125C17.5 19.1602 16.6842 20 15.6786 20H2.32143C1.31585 20 0.5 19.1602 0.5 18.125V7.5ZM3.53571 10C3.20179 10 2.92857 10.2812 2.92857 10.625V14.375C2.92857 14.7188 3.20179 15 3.53571 15H7.17857C7.5125 15 7.78571 14.7188 7.78571 14.375V10.625C7.78571 10.2812 7.5125 10 7.17857 10H3.53571Z" fill="#999999"/>
</g>
<defs>
<clipPath id="clip0_376_2396">
<rect width="17" height="20" fill="white" transform="translate(0.5)"/>
</clipPath>
</defs>
</svg>
