<svg width="15" height="21" viewBox="0 0 15 21" fill="none" xmlns="http://www.w3.org/2000/svg">
<g clip-path="url(#clip0_901_3029)">
<path d="M8.85208 16.8439C8.76357 16.8439 8.67869 16.8089 8.6161 16.7466C8.55352 16.6844 8.51835 16.5999 8.51835 16.5119C8.51835 16.4239 8.55352 16.3394 8.6161 16.2772C8.67869 16.2149 8.76357 16.1799 8.85208 16.1799H10.7081V14.5703H3.50049V16.1799H7.0938C7.18231 16.1799 7.2672 16.2149 7.32978 16.2772C7.39237 16.3394 7.42753 16.4239 7.42753 16.5119C7.42753 16.5999 7.39237 16.6844 7.32978 16.7466C7.2672 16.8089 7.18231 16.8439 7.0938 16.8439H3.50049V16.8942C3.50175 17.334 3.67795 17.7555 3.99061 18.0665C4.30327 18.3775 4.72697 18.5528 5.16914 18.554H9.03944C9.48161 18.5528 9.90531 18.3775 10.218 18.0665C10.5306 17.7555 10.7068 17.334 10.7081 16.8942V16.8439H8.85208Z" fill="#7777D5"/>
<path d="M3.49963 16.1807H7.09247C7.18098 16.1807 7.26587 16.2156 7.32845 16.2779C7.39104 16.3402 7.4262 16.4246 7.4262 16.5126C7.4262 16.6007 7.39104 16.6851 7.32845 16.7474C7.26587 16.8096 7.18098 16.8446 7.09247 16.8446H3.49963V16.1807Z" fill="white"/>
<path d="M10.7079 16.1807H8.85192C8.76341 16.1807 8.67852 16.2156 8.61594 16.2779C8.55335 16.3402 8.51819 16.4246 8.51819 16.5126C8.51819 16.6007 8.55335 16.6851 8.61594 16.7474C8.67852 16.8096 8.76341 16.8446 8.85192 16.8446H10.7079V16.1807Z" fill="white"/>
<path d="M4.8928 18.5317H9.32282V18.7651C9.32282 19.1349 9.17515 19.4895 8.91228 19.751C8.64942 20.0125 8.2929 20.1594 7.92116 20.1594H6.29351C5.92177 20.1594 5.56525 20.0125 5.30238 19.751C5.03952 19.4895 4.89185 19.1349 4.89185 18.7651V18.5317H4.8928Z" fill="#7777D5"/>
<path d="M14.112 7.01894C14.112 5.1574 13.3686 3.37211 12.0453 2.0558C10.7221 0.739496 8.92737 0 7.056 0C5.18463 0 3.38991 0.739496 2.06666 2.0558C0.743401 3.37211 0 5.1574 0 7.01894C0.00071987 7.40217 0.0326077 7.78472 0.0953514 8.16283C0.0953514 8.17137 0.0953546 8.17991 0.0986919 8.18844C0.313709 9.76771 1.03933 11.1155 2.17115 12.2466C2.83051 12.9058 3.41072 13.6144 3.51227 14.5899C3.79356 14.5899 10.7113 14.598 10.7113 14.598C10.7113 14.598 10.7895 13.9876 10.9096 13.6969C11.1547 13.1045 11.5675 12.635 12.0024 12.1793C13.0884 11.0411 13.764 9.75395 13.9928 8.31555C14.0727 7.88794 14.1126 7.45387 14.112 7.01894Z" fill="url(#paint0_linear_901_3029)"/>
<path d="M11.8792 4.78991C11.8119 4.79005 11.7458 4.77125 11.6887 4.73567C11.6316 4.70009 11.5858 4.64919 11.5565 4.58883C11.3743 4.24014 11.1408 3.92045 10.8637 3.64032C10.3679 3.14757 9.95028 2.97021 9.94599 2.96878C9.85876 2.93249 9.78948 2.86338 9.75323 2.77651C9.71698 2.68964 9.71669 2.59204 9.75243 2.50496C9.78808 2.41802 9.85692 2.34867 9.94388 2.31214C10.0308 2.2756 10.1288 2.27485 10.2163 2.31005C10.2387 2.31906 10.7632 2.53436 11.3691 3.13761C11.7035 3.47388 11.9841 3.85918 12.2011 4.28009C12.242 4.36506 12.2474 4.46274 12.216 4.55165C12.1846 4.64057 12.1191 4.71347 12.0337 4.75434C11.9856 4.7777 11.9328 4.78986 11.8792 4.78991Z" fill="white"/>
</g>
<defs>
<linearGradient id="paint0_linear_901_3029" x1="4.57107" y1="-2.27808" x2="4.57108" y2="45.015" gradientUnits="userSpaceOnUse">
<stop stop-color="#B1B1FA"/>
<stop offset="1" stop-color="#6F6FF9"/>
</linearGradient>
<clipPath id="clip0_901_3029">
<rect width="14.112" height="20.16" fill="white"/>
</clipPath>
</defs>
</svg>
