<svg width="23" height="22" viewBox="0 0 23 22" fill="none" xmlns="http://www.w3.org/2000/svg">
<g clip-path="url(#clip0_832_2915)">
<path d="M21.1499 11C21.1499 5.75311 16.8968 1.5 11.6499 1.5C6.40302 1.5 2.1499 5.75311 2.1499 11C2.1499 16.2469 6.40302 20.5 11.6499 20.5V22C5.57459 22 0.649902 17.0753 0.649902 11C0.649902 4.92469 5.57459 0 11.6499 0C17.7252 0 22.6499 4.92469 22.6499 11C22.6499 17.0753 17.7252 22 11.6499 22V20.5C16.8968 20.5 21.1499 16.2469 21.1499 11Z" fill="#999999"/>
<path d="M11.8198 6.84961C12.2575 6.84963 12.6108 7.20393 12.6108 7.6416V10.3779H15.3481C15.7858 10.3779 16.1401 10.7322 16.1401 11.1699C16.1401 11.6076 15.7858 11.9609 15.3481 11.9609H12.6108V14.6982C12.6108 15.1359 12.2575 15.4902 11.8198 15.4902C11.3821 15.4902 11.0278 15.1359 11.0278 14.6982V11.9609H8.2915C7.85383 11.9609 7.49953 11.6076 7.49951 11.1699C7.49951 10.7322 7.85382 10.3779 8.2915 10.3779H11.0278V7.6416C11.0278 7.20392 11.3821 6.84961 11.8198 6.84961Z" fill="#999999"/>
</g>
<defs>
<clipPath id="clip0_832_2915">
<rect width="22" height="22" fill="white" transform="translate(0.649902)"/>
</clipPath>
</defs>
</svg>
