<svg width="18" height="18" viewBox="0 0 18 18" fill="none" xmlns="http://www.w3.org/2000/svg">
<path d="M9 0C13.9707 4.23267e-08 18 4.02929 18 9C18 13.9707 13.9707 18 9 18C4.02929 18 4.23281e-08 13.9707 0 9C0 4.02929 4.02929 0 9 0ZM9.16895 5C8.81445 5.00024 8.52854 5.28612 8.52832 5.64062V8.52832H5.64062C5.28612 8.52854 5.00024 8.81445 5 9.16895C5 9.52365 5.28597 9.81033 5.64062 9.81055H8.52832V12.6973C8.52832 13.052 8.81431 13.3386 9.16895 13.3389C9.52379 13.3389 9.81055 13.0521 9.81055 12.6973V9.81055H12.6973C13.0521 9.81055 13.3389 9.52379 13.3389 9.16895C13.3386 8.81431 13.052 8.52832 12.6973 8.52832H9.81055V5.64062C9.81033 5.28597 9.52365 5 9.16895 5Z" fill="white"/>
</svg>
