<svg width="25" height="25" viewBox="0 0 25 25" fill="none" xmlns="http://www.w3.org/2000/svg">
<path d="M0.230556 12.4004C0.230556 14.7738 0.934345 17.0938 2.25292 19.0672C3.5715 21.0406 5.44564 22.5787 7.63835 23.4869C9.83107 24.3952 12.2439 24.6328 14.5716 24.1698C16.8994 23.7068 19.0376 22.5639 20.7158 20.8857C22.3941 19.2074 23.537 17.0692 24 14.7415C24.463 12.4137 24.2254 10.0009 23.3171 7.80819C22.4089 5.61547 20.8708 3.74133 18.8974 2.42275C16.924 1.10418 14.6039 0.400389 12.2306 0.400389C9.04796 0.400389 5.99571 1.66467 3.74527 3.91511C1.49484 6.16554 0.230556 9.21779 0.230556 12.4004ZM13.6968 7.66039L18.6611 11.8683V11.8683C18.9894 12.1469 18.9892 12.6536 18.6606 12.932L13.6871 17.1456C13.612 17.2093 13.525 17.2576 13.4312 17.2876C13.3374 17.3177 13.2386 17.329 13.1404 17.3209C13.0423 17.3128 12.9467 17.2854 12.8591 17.2403C12.7715 17.1953 12.6936 17.1334 12.63 17.0583C12.5663 16.9831 12.5181 16.8962 12.488 16.8024C12.4579 16.7086 12.4466 16.6098 12.4547 16.5116C12.4628 16.4134 12.4902 16.3178 12.5353 16.2303C12.5803 16.1427 12.6422 16.0648 12.7173 16.0011L16.0837 13.1493L6.14998 13.1493C5.95106 13.1493 5.7603 13.0702 5.61965 12.9296C5.47899 12.7889 5.39998 12.5982 5.39998 12.3993C5.39998 12.2004 5.47899 12.0096 5.61965 11.8689C5.7603 11.7283 5.95106 11.6493 6.14998 11.6493L16.0837 11.6493L12.7275 8.80376C12.5815 8.67353 12.4921 8.49139 12.4785 8.29622C12.4649 8.10104 12.5281 7.90828 12.6547 7.75905C12.7812 7.60982 12.961 7.51594 13.1558 7.49744C13.3506 7.47894 13.5445 7.53765 13.6968 7.66039Z" fill="#9494F8"/>
</svg>
